<svg width="512" height="512" viewBox="0 0 512 512" fill="none" xmlns="http://www.w3.org/2000/svg">
<rect x="5" y="5" width="502" height="502" rx="85" fill="black" stroke="white" stroke-width="10"/>
<path fill-rule="evenodd" clip-rule="evenodd" d="M267.463 101.75C263.825 99.6486 259.305 99.6486 255.667 101.75L128.132 175.413C124.602 177.452 122.437 181.162 122.437 185.17C122.437 189.178 124.602 192.888 128.132 194.926L255.667 268.59C259.305 270.691 263.825 270.691 267.463 268.59L394.997 194.926C398.529 192.888 400.695 189.178 400.695 185.17C400.695 181.162 398.529 177.452 394.997 175.413L267.463 101.75ZM261.565 245.669L156.821 185.17L261.565 124.67L366.309 185.17L261.565 245.669ZM124.049 253.068C127.306 247.679 134.416 245.892 139.929 249.076L261.565 319.332L383.201 249.076C388.713 245.892 395.823 247.679 399.081 253.068C402.339 258.456 400.511 265.405 394.997 268.59L267.463 342.254C263.825 344.355 259.305 344.355 255.667 342.254L128.132 268.59C122.62 265.405 120.791 258.456 124.049 253.068ZM124.049 321.063C127.306 315.676 134.416 313.89 139.929 317.072L261.565 387.329L383.201 317.072C388.713 313.89 395.823 315.676 399.081 321.063C402.339 326.453 400.511 333.403 394.997 336.587L267.463 410.25C263.825 412.351 259.305 412.351 255.667 410.25L128.132 336.587C122.619 333.403 120.791 326.453 124.049 321.063Z" fill="white"/>
</svg>
