<svg width="800" height="400" viewBox="0 0 800 400" xmlns="http://www.w3.org/2000/svg"><defs><pattern id="satori_pattern_id_0" x="0" y="0" width="1" height="1" patternUnits="objectBoundingBox"><linearGradient id="satori_biid_0" x1="0" y1="0" x2="1" y2="1" spreadMethod="pad"><stop offset="0%" stop-color="#000000"></stop><stop offset="100%" stop-color="#1a1a1a"></stop></linearGradient><rect x="0" y="0" width="800" height="400" fill="url(#satori_biid_0)"></rect></pattern></defs><mask id="satori_om-id"><rect x="0" y="0" width="800" height="400" fill="#fff"></rect></mask><rect x="0" y="0" width="800" height="400" fill="url(#satori_pattern_id_0)"></rect><mask id="satori_om-id-0"><rect x="246" y="79" width="309" height="120" fill="#fff"></rect></mask><clipPath id="satori_cp-id-0-0"><rect x="246" y="99" width="80" height="80"></rect></clipPath><mask id="satori_om-id-0-0"><rect x="246" y="99" width="80" height="80" fill="#fff"></rect></mask><image x="246" y="99" width="80" height="80" href="data:image/svg+xml;utf8,%3Csvg  fill=%22none%22 xmlns=%22http://www.w3.org/2000/svg%22 width=%2280%22 height=%2280%22 viewBox=%220 0 512 512%22%3E%3Cpath fill-rule=%22evenodd%22 clip-rule=%22evenodd%22 d=%22M267.463 101.75C263.825 99.6486 259.305 99.6486 255.667 101.75L128.132 175.413C124.602 177.452 122.437 181.162 122.437 185.17C122.437 189.178 124.602 192.888 128.132 194.926L255.667 268.59C259.305 270.691 263.825 270.691 267.463 268.59L394.997 194.926C398.529 192.888 400.695 189.178 400.695 185.17C400.695 181.162 398.529 177.452 394.997 175.413L267.463 101.75ZM261.565 245.669L156.821 185.17L261.565 124.67L366.309 185.17L261.565 245.669ZM124.049 253.068C127.306 247.679 134.416 245.892 139.929 249.076L261.565 319.332L383.201 249.076C388.713 245.892 395.823 247.679 399.081 253.068C402.339 258.456 400.511 265.405 394.997 268.59L267.463 342.254C263.825 344.355 259.305 344.355 255.667 342.254L128.132 268.59C122.62 265.405 120.791 258.456 124.049 253.068ZM124.049 321.063C127.306 315.676 134.416 313.89 139.929 317.072L261.565 387.329L383.201 317.072C388.713 313.89 395.823 315.676 399.081 321.063C402.339 326.453 400.511 333.403 394.997 336.587L267.463 410.25C263.825 412.351 259.305 412.351 255.667 410.25L128.132 336.587C122.619 333.403 120.791 326.453 124.049 321.063Z%22 fill=%22white%22%3E%3C/path%3E%3Crect x=%225%22 y=%225%22 width=%22502%22 height=%22502%22 rx=%2285%22 stroke=%22white%22 stroke-width=%2210%22%3E%3C/rect%3E%3C/svg%3E" preserveAspectRatio="none" clip-path="url(#satori_cp-id-0-0)" mask="url(#satori_om-id-0-0)"></image><mask id="satori_om-id-0-0-0"><rect x="246" y="99" width="0" height="80" fill="#fff"></rect></mask><mask id="satori_om-id-0-0-1"><rect x="246" y="99" width="0" height="80" fill="#fff"></rect></mask><mask id="satori_om-id-0-1"><rect x="346" y="100" width="209" height="77" fill="#fff"></rect></mask><path fill="white" d="M381.5 162L350.0 162L350.0 115.5L381.4 115.5L381.4 123.6L359.9 123.6L359.9 134.7L379.8 134.7L379.8 142.8L359.9 142.8L359.9 153.9L381.5 153.9L381.5 162ZM386.6 127.1L407.6 127.1L407.6 134.4L386.6 134.4L386.6 127.1ZM391.4 152.5L391.4 118.7L401.1 118.7L401.1 151.3Q401.1 152.6 401.5 153.4Q401.9 154.1 402.6 154.4Q403.4 154.7 404.3 154.7L404.3 154.7Q405.0 154.7 405.7 154.6Q406.4 154.4 406.8 154.4L406.8 154.4L408.3 161.6Q407.5 161.8 406.2 162.1Q404.9 162.4 403.0 162.5L403.0 162.5Q399.5 162.6 396.9 161.5Q394.3 160.5 392.8 158.2Q391.4 156.0 391.4 152.5L391.4 152.5ZM424.3 141.8L424.3 141.8L424.3 162L414.7 162L414.7 115.5L424.1 115.5L424.1 133.3L424.5 133.3Q425.7 130.2 428.3 128.4Q430.9 126.6 434.9 126.6L434.9 126.6Q438.5 126.6 441.3 128.2Q444.0 129.8 445.5 132.7Q447 135.7 447.0 139.8L447.0 139.8L447.0 162L437.3 162L437.3 141.5Q437.3 138.3 435.7 136.5Q434.0 134.7 431.1 134.7L431.1 134.7Q429.1 134.7 427.6 135.5Q426.1 136.4 425.2 138.0Q424.4 139.6 424.3 141.8ZM470.5 162.7L470.5 162.7Q465.1 162.7 461.3 160.5Q457.4 158.3 455.3 154.3Q453.2 150.2 453.2 144.7L453.2 144.7Q453.2 139.3 455.3 135.3Q457.4 131.2 461.2 128.9Q465 126.6 470.1 126.6L470.1 126.6Q473.6 126.6 476.6 127.7Q479.6 128.8 481.8 131.0Q484.0 133.3 485.3 136.6Q486.5 139.9 486.5 144.4L486.5 144.4L486.5 147.0L457.1 147.0L457.1 141.0L477.4 141.0Q477.4 138.9 476.5 137.3Q475.6 135.7 474.0 134.8Q472.4 133.9 470.3 133.9L470.3 133.9Q468.1 133.9 466.4 134.9Q464.7 135.9 463.8 137.6Q462.8 139.3 462.8 141.3L462.8 141.3L462.8 147.0Q462.8 149.6 463.7 151.5Q464.7 153.4 466.5 154.4Q468.3 155.5 470.7 155.5L470.7 155.5Q472.3 155.5 473.6 155Q475.0 154.5 475.9 153.6Q476.9 152.7 477.4 151.4L477.4 151.4L486.3 152Q485.7 155.2 483.6 157.6Q481.5 160.0 478.1 161.4Q474.8 162.7 470.5 162.7ZM502.5 162L492.9 162L492.9 127.1L502.3 127.1L502.3 133.2L502.6 133.2Q503.6 129.9 505.8 128.3Q508.1 126.6 511 126.6L511 126.6Q511.7 126.6 512.6 126.7Q513.4 126.8 514.0 126.9L514.0 126.9L514.0 135.5Q513.4 135.3 512.2 135.2Q511.0 135 510.0 135L510.0 135Q507.8 135 506.1 135.9Q504.5 136.8 503.5 138.5Q502.5 140.1 502.5 142.3L502.5 142.3L502.5 162ZM528.7 141.8L528.7 141.8L528.7 162L519.0 162L519.0 127.1L528.3 127.1L528.3 133.3L528.7 133.3Q529.8 130.2 532.5 128.4Q535.3 126.6 539.2 126.6L539.2 126.6Q542.8 126.6 545.5 128.2Q548.2 129.8 549.7 132.8Q551.2 135.7 551.2 139.8L551.2 139.8L551.2 162L541.5 162L541.5 141.5Q541.5 138.3 539.9 136.5Q538.2 134.7 535.3 134.7L535.3 134.7Q533.4 134.7 531.9 135.5Q530.4 136.4 529.6 138.0Q528.7 139.6 528.7 141.8Z "></path><mask id="satori_om-id-1"><rect x="166" y="239" width="468" height="43" fill="#fff"></rect></mask><path fill="#ffffff" d="M173.8 273.9L168.3 273.9L168.3 247.7L178.6 247.7Q181.6 247.7 183.7 248.7Q185.8 249.8 186.9 251.7Q188.0 253.7 188.0 256.2L188.0 256.2Q188.0 258.9 186.9 260.7Q185.7 262.6 183.6 263.6Q181.5 264.6 178.5 264.6L178.5 264.6L171.5 264.6L171.5 260.1L177.6 260.1Q179.2 260.1 180.2 259.7Q181.3 259.3 181.8 258.4Q182.3 257.5 182.3 256.2L182.3 256.2Q182.3 254.9 181.8 254.0Q181.3 253.2 180.2 252.7Q179.1 252.2 177.5 252.2L177.5 252.2L173.8 252.2L173.8 273.9ZM176.4 262.0L182.4 262.0L188.9 273.9L182.8 273.9L176.4 262.0ZM200.4 274.3L200.4 274.3Q197.4 274.3 195.2 273.0Q193.0 271.8 191.8 269.5Q190.7 267.3 190.7 264.1L190.7 264.1Q190.7 261.1 191.8 258.8Q193.0 256.5 195.2 255.3Q197.3 254.0 200.2 254.0L200.2 254.0Q202.1 254.0 203.8 254.6Q205.5 255.2 206.8 256.5Q208.0 257.7 208.7 259.6Q209.4 261.4 209.4 264.0L209.4 264.0L209.4 265.5L192.8 265.5L192.8 262.1L204.3 262.1Q204.3 260.9 203.8 260.0Q203.3 259.1 202.4 258.6Q201.5 258.0 200.3 258.0L200.3 258.0Q199.0 258.0 198.1 258.6Q197.1 259.2 196.6 260.1Q196.1 261.1 196.1 262.3L196.1 262.3L196.1 265.5Q196.1 266.9 196.6 268.0Q197.1 269.0 198.1 269.6Q199.1 270.2 200.5 270.2L200.5 270.2Q201.4 270.2 202.2 269.9Q202.9 269.7 203.5 269.2Q204.0 268.7 204.3 267.9L204.3 267.9L209.3 268.3Q208.9 270.1 207.7 271.4Q206.6 272.8 204.7 273.5Q202.8 274.3 200.4 274.3ZM218.6 274.2L218.6 274.2Q216.7 274.2 215.2 273.6Q213.8 272.9 212.9 271.6Q212.1 270.3 212.1 268.4L212.1 268.4Q212.1 266.8 212.7 265.6Q213.3 264.5 214.3 263.9Q215.3 263.2 216.7 262.8Q218.0 262.5 219.4 262.3L219.4 262.3Q221.2 262.2 222.2 262.0Q223.2 261.8 223.7 261.5Q224.2 261.2 224.2 260.6L224.2 260.6L224.2 260.5Q224.2 259.3 223.4 258.6Q222.7 258.0 221.3 258.0L221.3 258.0Q219.8 258.0 218.9 258.6Q218.1 259.3 217.8 260.2L217.8 260.2L212.8 259.8Q213.1 258.0 214.3 256.7Q215.4 255.4 217.2 254.7Q219.0 254.0 221.3 254.0L221.3 254.0Q222.9 254.0 224.4 254.4Q225.9 254.8 227.1 255.6Q228.3 256.4 229.0 257.6Q229.6 258.9 229.6 260.6L229.6 260.6L229.6 273.9L224.5 273.9L224.5 271.2L224.3 271.2Q223.8 272.1 223.1 272.8Q222.3 273.5 221.2 273.9Q220.0 274.2 218.6 274.2ZM220.1 270.5L220.1 270.5Q221.3 270.5 222.3 270.0Q223.2 269.5 223.7 268.7Q224.2 267.9 224.2 266.9L224.2 266.9L224.2 264.8Q224.0 264.9 223.5 265.1Q223.1 265.2 222.5 265.3Q222.0 265.4 221.4 265.5Q220.9 265.6 220.4 265.7L220.4 265.7Q219.5 265.8 218.8 266.1Q218.1 266.4 217.7 266.9Q217.3 267.4 217.3 268.2L217.3 268.2Q217.3 269.3 218.1 269.9Q218.9 270.5 220.1 270.5ZM242.7 274.3L242.7 274.3Q239.7 274.3 237.6 273.0Q235.4 271.7 234.2 269.4Q233.1 267.1 233.1 264.1L233.1 264.1Q233.1 261.1 234.2 258.8Q235.4 256.6 237.6 255.3Q239.7 254.0 242.7 254.0L242.7 254.0Q245.3 254.0 247.2 254.9Q249.1 255.8 250.3 257.5Q251.4 259.2 251.5 261.5L251.5 261.5L246.4 261.5Q246.2 260.0 245.2 259.1Q244.3 258.2 242.8 258.2L242.8 258.2Q241.5 258.2 240.6 258.9Q239.7 259.6 239.1 260.9Q238.6 262.2 238.6 264.1L238.6 264.1Q238.6 265.9 239.1 267.3Q239.6 268.6 240.6 269.3Q241.5 270.0 242.8 270.0L242.8 270.0Q243.7 270.0 244.5 269.6Q245.2 269.2 245.7 268.4Q246.2 267.7 246.4 266.7L246.4 266.7L251.5 266.7Q251.4 268.9 250.3 270.6Q249.2 272.3 247.3 273.3Q245.4 274.3 242.7 274.3ZM253.6 254.2L265.5 254.2L265.5 258.3L253.6 258.3L253.6 254.2ZM256.3 268.6L256.3 249.5L261.8 249.5L261.8 267.8Q261.8 268.6 262.0 269.0Q262.2 269.4 262.6 269.6Q263.1 269.8 263.6 269.8L263.6 269.8Q264.0 269.8 264.4 269.7Q264.8 269.6 265.0 269.6L265.0 269.6L265.8 273.6Q265.4 273.8 264.7 273.9Q263.9 274.1 262.9 274.1L262.9 274.1Q260.9 274.2 259.4 273.6Q257.9 273.0 257.1 271.8Q256.3 270.5 256.3 268.6L256.3 268.6Z M294.2 247.7L299.7 247.7L299.7 273.9L294.9 273.9L283.5 257.4L283.3 257.4L283.3 273.9L277.8 273.9L277.8 247.7L282.6 247.7L293.9 264.2L294.2 264.2L294.2 247.7ZM309.7 274.2L309.7 274.2Q307.9 274.2 306.4 273.6Q304.9 272.9 304.1 271.6Q303.2 270.3 303.2 268.4L303.2 268.4Q303.2 266.8 303.8 265.6Q304.4 264.5 305.5 263.9Q306.5 263.2 307.8 262.8Q309.1 262.5 310.6 262.3L310.6 262.3Q312.3 262.2 313.4 262.0Q314.4 261.8 314.9 261.5Q315.4 261.2 315.4 260.6L315.4 260.6L315.4 260.5Q315.4 259.3 314.6 258.6Q313.8 258.0 312.4 258.0L312.4 258.0Q311.0 258.0 310.1 258.6Q309.2 259.3 309.0 260.2L309.0 260.2L303.9 259.8Q304.3 258.0 305.4 256.7Q306.5 255.4 308.3 254.7Q310.1 254.0 312.5 254.0L312.5 254.0Q314.1 254.0 315.6 254.4Q317.1 254.8 318.3 255.6Q319.4 256.4 320.1 257.6Q320.8 258.9 320.8 260.6L320.8 260.6L320.8 273.9L315.6 273.9L315.6 271.2L315.5 271.2Q315.0 272.1 314.2 272.8Q313.4 273.5 312.3 273.9Q311.2 274.2 309.7 274.2ZM311.3 270.5L311.3 270.5Q312.5 270.5 313.4 270.0Q314.3 269.5 314.9 268.7Q315.4 267.9 315.4 266.9L315.4 266.9L315.4 264.8Q315.1 264.9 314.7 265.1Q314.3 265.2 313.7 265.3Q313.2 265.4 312.6 265.5Q312.1 265.6 311.6 265.7L311.6 265.7Q310.7 265.8 309.9 266.1Q309.2 266.4 308.8 266.9Q308.4 267.4 308.4 268.2L308.4 268.2Q308.4 269.3 309.2 269.9Q310.1 270.5 311.3 270.5ZM323.7 254.2L335.5 254.2L335.5 258.3L323.7 258.3L323.7 254.2ZM326.3 268.6L326.3 249.5L331.8 249.5L331.8 267.8Q331.8 268.6 332.0 269.0Q332.2 269.4 332.7 269.6Q333.1 269.8 333.6 269.8L333.6 269.8Q334.0 269.8 334.4 269.7Q334.8 269.6 335.0 269.6L335.0 269.6L335.8 273.6Q335.4 273.8 334.7 273.9Q333.9 274.1 332.9 274.1L332.9 274.1Q330.9 274.2 329.4 273.6Q328.0 273.0 327.1 271.8Q326.3 270.5 326.3 268.6L326.3 268.6ZM344.5 273.9L339.0 273.9L339.0 254.2L344.5 254.2L344.5 273.9ZM341.8 251.7L341.8 251.7Q340.5 251.7 339.7 250.9Q338.8 250.1 338.8 248.9L338.8 248.9Q338.8 247.8 339.7 247.0Q340.5 246.2 341.8 246.2L341.8 246.2Q343.0 246.2 343.8 247.0Q344.7 247.8 344.7 248.9L344.7 248.9Q344.7 250.1 343.8 250.9Q343.0 251.7 341.8 251.7ZM361.4 254.2L367.1 254.2L360.3 273.9L354.1 273.9L347.3 254.2L353.0 254.2L357.1 268.3L357.3 268.3L361.4 254.2ZM378.2 274.3L378.2 274.3Q375.2 274.3 373.0 273.0Q370.8 271.8 369.6 269.5Q368.5 267.3 368.5 264.1L368.5 264.1Q368.5 261.1 369.6 258.8Q370.8 256.5 373.0 255.3Q375.1 254.0 378.0 254.0L378.0 254.0Q379.9 254.0 381.6 254.6Q383.3 255.2 384.6 256.5Q385.8 257.7 386.5 259.6Q387.2 261.4 387.2 264.0L387.2 264.0L387.2 265.5L370.6 265.5L370.6 262.1L382.1 262.1Q382.1 260.9 381.6 260.0Q381.1 259.1 380.2 258.6Q379.3 258.0 378.1 258.0L378.1 258.0Q376.8 258.0 375.9 258.6Q374.9 259.2 374.4 260.1Q373.9 261.1 373.8 262.3L373.8 262.3L373.8 265.5Q373.8 266.9 374.4 268.0Q374.9 269.0 375.9 269.6Q376.9 270.2 378.3 270.2L378.3 270.2Q379.2 270.2 380.0 269.9Q380.7 269.7 381.2 269.2Q381.8 268.7 382.1 267.9L382.1 267.9L387.1 268.3Q386.7 270.1 385.5 271.4Q384.4 272.8 382.5 273.5Q380.6 274.3 378.2 274.3Z M423.9 260.8L423.9 260.8Q423.9 265.1 422.3 268.1Q420.7 271.1 417.9 272.7Q415.1 274.2 411.7 274.2L411.7 274.2Q408.2 274.2 405.4 272.6Q402.6 271.1 401.0 268.1Q399.4 265.1 399.4 260.8L399.4 260.8Q399.4 256.5 401.0 253.5Q402.6 250.5 405.4 248.9Q408.2 247.3 411.7 247.3L411.7 247.3Q415.1 247.3 417.9 248.9Q420.7 250.5 422.3 253.5Q423.9 256.5 423.9 260.8ZM418.3 260.8L418.3 260.8Q418.3 258.0 417.5 256.1Q416.7 254.2 415.2 253.2Q413.7 252.2 411.7 252.2L411.7 252.2Q409.7 252.2 408.2 253.2Q406.7 254.2 405.8 256.1Q405.0 258.0 405.0 260.8L405.0 260.8Q405.0 263.6 405.8 265.5Q406.7 267.4 408.2 268.4Q409.7 269.3 411.7 269.3L411.7 269.3Q413.7 269.3 415.2 268.4Q416.7 267.4 417.5 265.5Q418.3 263.6 418.3 260.8ZM433.9 252.3L425.9 252.3L425.9 247.7L447.4 247.7L447.4 252.3L439.3 252.3L439.3 273.9L433.9 273.9L433.9 252.3ZM458.8 253.7L452.2 273.9L446.3 273.9L455.3 247.7L462.5 247.7L471.5 273.9L465.5 273.9L459.0 253.7L458.8 253.7ZM451.8 267.9L451.8 263.6L465.9 263.6L465.9 267.9L451.8 267.9Z M503.5 264.2L503.5 247.7L509.1 247.7L509.1 264.7Q509.1 267.6 507.7 269.7Q506.3 271.9 503.9 273.1Q501.5 274.2 498.2 274.2L498.2 274.2Q494.9 274.2 492.5 273.1Q490.1 271.9 488.7 269.7Q487.4 267.6 487.4 264.7L487.4 264.7L487.4 247.7L492.9 247.7L492.9 264.2Q492.9 265.7 493.5 266.9Q494.2 268.0 495.4 268.7Q496.6 269.4 498.2 269.4L498.2 269.4Q499.8 269.4 501.0 268.7Q502.2 268.0 502.9 266.9Q503.5 265.7 503.5 264.2L503.5 264.2ZM519.0 281.2L513.5 281.2L513.5 254.2L518.9 254.2L518.9 257.5L519.1 257.5Q519.5 256.7 520.2 255.9Q520.8 255.1 522.0 254.5Q523.1 254.0 524.7 254.0L524.7 254.0Q526.9 254.0 528.7 255.1Q530.5 256.2 531.6 258.5Q532.7 260.7 532.7 264.1L532.7 264.1Q532.7 267.4 531.6 269.6Q530.6 271.9 528.7 273.0Q526.9 274.2 524.7 274.2L524.7 274.2Q523.1 274.2 522.0 273.7Q520.9 273.1 520.2 272.3Q519.5 271.5 519.1 270.7L519.1 270.7L519.0 270.7L519.0 281.2ZM518.8 264.1L518.8 264.1Q518.8 265.8 519.3 267.1Q519.8 268.4 520.7 269.1Q521.7 269.9 523.0 269.9L523.0 269.9Q524.3 269.9 525.2 269.1Q526.1 268.4 526.6 267.1Q527.1 265.8 527.1 264.1L527.1 264.1Q527.1 262.4 526.6 261.1Q526.2 259.8 525.2 259.0Q524.3 258.3 523.0 258.3L523.0 258.3Q521.6 258.3 520.7 259.0Q519.8 259.7 519.3 261.0Q518.8 262.3 518.8 264.1ZM543.5 274.2L543.5 274.2Q541.3 274.2 539.5 273.0Q537.7 271.9 536.6 269.6Q535.5 267.4 535.5 264.1L535.5 264.1Q535.5 260.7 536.6 258.5Q537.7 256.2 539.5 255.1Q541.3 254.0 543.5 254.0L543.5 254.0Q545.2 254.0 546.3 254.5Q547.4 255.1 548.0 255.9Q548.7 256.7 549.1 257.5L549.1 257.5L549.3 257.5L549.3 247.7L554.7 247.7L554.7 273.9L549.3 273.9L549.3 270.7L549.1 270.7Q548.7 271.5 548.0 272.3Q547.3 273.1 546.2 273.7Q545.1 274.2 543.5 274.2ZM545.2 269.9L545.2 269.9Q546.6 269.9 547.5 269.1Q548.4 268.4 548.9 267.1Q549.4 265.8 549.4 264.1L549.4 264.1Q549.4 262.3 548.9 261.0Q548.4 259.7 547.5 259.0Q546.6 258.3 545.2 258.3L545.2 258.3Q543.9 258.3 543.0 259.0Q542.1 259.8 541.6 261.1Q541.1 262.4 541.1 264.1L541.1 264.1Q541.1 265.8 541.6 267.1Q542.1 268.4 543.0 269.1Q543.9 269.9 545.2 269.9ZM564.7 274.2L564.7 274.2Q562.9 274.2 561.4 273.6Q559.9 272.9 559.1 271.6Q558.2 270.3 558.2 268.4L558.2 268.4Q558.2 266.8 558.8 265.6Q559.4 264.5 560.5 263.9Q561.5 263.2 562.8 262.8Q564.1 262.5 565.6 262.3L565.6 262.3Q567.3 262.2 568.4 262.0Q569.4 261.8 569.9 261.5Q570.4 261.2 570.4 260.6L570.4 260.6L570.4 260.5Q570.4 259.3 569.6 258.6Q568.8 258.0 567.4 258.0L567.4 258.0Q566.0 258.0 565.1 258.6Q564.2 259.3 564.0 260.2L564.0 260.2L558.9 259.8Q559.3 258.0 560.4 256.7Q561.6 255.4 563.3 254.7Q565.1 254.0 567.5 254.0L567.5 254.0Q569.1 254.0 570.6 254.4Q572.1 254.8 573.3 255.6Q574.5 256.4 575.1 257.6Q575.8 258.9 575.8 260.6L575.8 260.6L575.8 273.9L570.6 273.9L570.6 271.2L570.5 271.2Q570.0 272.1 569.2 272.8Q568.4 273.5 567.3 273.9Q566.2 274.2 564.7 274.2ZM566.3 270.5L566.3 270.5Q567.5 270.5 568.4 270.0Q569.4 269.5 569.9 268.7Q570.4 267.9 570.4 266.9L570.4 266.9L570.4 264.8Q570.1 264.9 569.7 265.1Q569.3 265.2 568.7 265.3Q568.2 265.4 567.6 265.5Q567.1 265.6 566.6 265.7L566.6 265.7Q565.7 265.8 564.9 266.1Q564.2 266.4 563.8 266.9Q563.4 267.4 563.4 268.2L563.4 268.2Q563.4 269.3 564.2 269.9Q565.1 270.5 566.3 270.5ZM578.7 254.2L590.5 254.2L590.5 258.3L578.7 258.3L578.7 254.2ZM581.3 268.6L581.3 249.5L586.8 249.5L586.8 267.8Q586.8 268.6 587.0 269.0Q587.2 269.4 587.7 269.6Q588.1 269.8 588.6 269.8L588.6 269.8Q589.0 269.8 589.4 269.7Q589.8 269.6 590.0 269.6L590.0 269.6L590.8 273.6Q590.4 273.8 589.7 273.9Q588.9 274.1 587.9 274.1L587.9 274.1Q585.9 274.2 584.4 273.6Q583.0 273.0 582.1 271.8Q581.3 270.5 581.3 268.6L581.3 268.6ZM602.8 274.3L602.8 274.3Q599.7 274.3 597.6 273.0Q595.4 271.8 594.2 269.5Q593.0 267.3 593.0 264.1L593.0 264.1Q593.0 261.1 594.2 258.8Q595.4 256.5 597.5 255.3Q599.7 254.0 602.6 254.0L602.6 254.0Q604.5 254.0 606.2 254.6Q607.9 255.2 609.1 256.5Q610.4 257.7 611.1 259.6Q611.8 261.4 611.8 264.0L611.8 264.0L611.8 265.5L595.2 265.5L595.2 262.1L606.7 262.1Q606.7 260.9 606.1 260.0Q605.6 259.1 604.7 258.6Q603.8 258.0 602.6 258.0L602.6 258.0Q601.4 258.0 600.4 258.6Q599.5 259.2 599.0 260.1Q598.4 261.1 598.4 262.3L598.4 262.3L598.4 265.5Q598.4 266.9 599.0 268.0Q599.5 269.0 600.5 269.6Q601.5 270.2 602.9 270.2L602.9 270.2Q603.8 270.2 604.5 269.9Q605.3 269.7 605.8 269.2Q606.3 268.7 606.6 267.9L606.6 267.9L611.7 268.3Q611.3 270.1 610.1 271.4Q608.9 272.8 607.1 273.5Q605.2 274.3 602.8 274.3ZM631.7 259.8L631.7 259.8L626.7 260.1Q626.6 259.5 626.1 259.0Q625.7 258.5 625.0 258.2Q624.3 257.8 623.4 257.8L623.4 257.8Q622.1 257.8 621.3 258.4Q620.4 258.9 620.4 259.8L620.4 259.8Q620.4 260.5 621.0 261.0Q621.5 261.5 622.9 261.8L622.9 261.8L626.4 262.5Q629.3 263.1 630.7 264.4Q632.1 265.7 632.1 267.8L632.1 267.8Q632.1 269.7 631.0 271.2Q629.9 272.6 627.9 273.4Q625.9 274.3 623.4 274.3L623.4 274.3Q619.5 274.3 617.2 272.6Q614.9 271.0 614.5 268.2L614.5 268.2L619.8 267.9Q620.1 269.1 621.0 269.7Q621.9 270.3 623.4 270.3L623.4 270.3Q624.8 270.3 625.7 269.8Q626.6 269.2 626.6 268.3L626.6 268.3Q626.6 267.6 626.0 267.1Q625.3 266.6 624.1 266.4L624.1 266.4L620.7 265.7Q617.8 265.1 616.4 263.7Q615.0 262.3 615.0 260.1L615.0 260.1Q615.0 258.2 616.0 256.8Q617.0 255.5 618.9 254.7Q620.8 254.0 623.3 254.0L623.3 254.0Q627.0 254.0 629.2 255.6Q631.3 257.1 631.7 259.8Z "></path><mask id="satori_om-id-2"><rect x="220" y="292" width="361" height="29" fill="#fff"></rect></mask><mask id="satori_om-id-2-0"><rect x="220" y="292" width="101" height="29" fill="#fff"></rect></mask><path fill="#C9F66F" d="M234.5 302.8L231.0 302.8Q230.9 301.8 230.1 301.2Q229.3 300.6 228.0 300.6L228.0 300.6Q227.1 300.6 226.5 300.9Q225.9 301.1 225.5 301.6Q225.2 302.0 225.2 302.6L225.2 302.6Q225.2 303.1 225.4 303.4Q225.6 303.8 226 304.0Q226.4 304.3 226.9 304.4Q227.4 304.6 228.0 304.8L228.0 304.8L229.5 305.1Q230.7 305.4 231.6 305.8Q232.6 306.2 233.3 306.9Q234.0 307.5 234.4 308.3Q234.8 309.2 234.8 310.3L234.8 310.3Q234.8 311.9 233.9 313.0Q233.1 314.2 231.6 314.9Q230.1 315.5 228.0 315.5L228.0 315.5Q225.9 315.5 224.3 314.8Q222.7 314.2 221.9 312.9Q221.0 311.7 221.0 309.8L221.0 309.8L224.5 309.8Q224.6 310.6 225.0 311.2Q225.5 311.8 226.2 312.1Q227.0 312.4 227.9 312.4L227.9 312.4Q228.9 312.4 229.6 312.1Q230.3 311.9 230.7 311.4Q231.0 310.9 231.0 310.3L231.0 310.3Q231.0 309.7 230.7 309.3Q230.3 308.9 229.7 308.6Q229.0 308.3 228.1 308.1L228.1 308.1L226.2 307.6Q224.0 307.1 222.7 305.9Q221.4 304.8 221.4 302.8L221.4 302.8Q221.4 301.3 222.3 300.1Q223.1 298.9 224.6 298.2Q226.1 297.6 228.0 297.6L228.0 297.6Q230.0 297.6 231.4 298.2Q232.9 298.9 233.7 300.1Q234.5 301.3 234.5 302.8L234.5 302.8ZM243.1 315.5L243.1 315.5Q241.1 315.5 239.6 314.6Q238.2 313.8 237.4 312.3Q236.6 310.7 236.6 308.8L236.6 308.8Q236.6 306.7 237.4 305.2Q238.2 303.7 239.6 302.8Q241.1 302.0 243.1 302.0L243.1 302.0Q244.8 302.0 246.1 302.6Q247.3 303.2 248.1 304.4Q248.8 305.5 248.9 307L248.9 307L245.5 307Q245.4 306.0 244.7 305.4Q244.1 304.8 243.1 304.8L243.1 304.8Q242.3 304.8 241.7 305.3Q241.0 305.7 240.7 306.6Q240.3 307.5 240.3 308.7L240.3 308.7Q240.3 310.0 240.7 310.8Q241.0 311.7 241.6 312.2Q242.3 312.6 243.1 312.6L243.1 312.6Q243.7 312.6 244.2 312.4Q244.7 312.1 245.1 311.6Q245.4 311.1 245.5 310.5L245.5 310.5L248.9 310.5Q248.8 312.0 248.1 313.1Q247.4 314.2 246.1 314.9Q244.8 315.5 243.1 315.5ZM255.0 315.5L255.0 315.5Q253.7 315.5 252.8 315.1Q251.8 314.6 251.2 313.8Q250.6 312.9 250.6 311.6L250.6 311.6Q250.6 310.5 251.0 309.8Q251.4 309.0 252.1 308.6Q252.8 308.1 253.7 307.9Q254.6 307.7 255.6 307.6L255.6 307.6Q256.7 307.4 257.4 307.3Q258.1 307.2 258.4 307.0Q258.7 306.8 258.7 306.4L258.7 306.4L258.7 306.3Q258.7 305.5 258.2 305.1Q257.7 304.6 256.8 304.6L256.8 304.6Q255.8 304.6 255.2 305.1Q254.7 305.5 254.5 306.1L254.5 306.1L251.1 305.9Q251.4 304.7 252.1 303.8Q252.9 302.9 254.1 302.5Q255.2 302.0 256.8 302.0L256.8 302.0Q257.9 302.0 258.9 302.2Q259.9 302.5 260.7 303.0Q261.5 303.6 261.9 304.4Q262.4 305.3 262.4 306.4L262.4 306.4L262.4 315.3L258.9 315.3L258.9 313.4L258.8 313.4Q258.5 314.0 258.0 314.5Q257.4 315.0 256.7 315.2Q256.0 315.5 255.0 315.5ZM256.0 313.0L256.0 313.0Q256.8 313.0 257.4 312.7Q258.1 312.4 258.4 311.8Q258.8 311.3 258.8 310.6L258.8 310.6L258.8 309.2Q258.6 309.3 258.3 309.4Q258.0 309.5 257.6 309.5Q257.3 309.6 256.9 309.7Q256.5 309.7 256.2 309.8L256.2 309.8Q255.6 309.9 255.1 310.1Q254.6 310.3 254.4 310.6Q254.1 311.0 254.1 311.5L254.1 311.5Q254.1 312.2 254.7 312.6Q255.2 313.0 256.0 313.0ZM265.2 297.8L268.8 297.8L268.8 315.3L265.2 315.3L265.2 297.8ZM275.4 315.5L275.4 315.5Q274.2 315.5 273.2 315.1Q272.2 314.6 271.7 313.8Q271.1 312.9 271.1 311.6L271.1 311.6Q271.1 310.5 271.5 309.8Q271.9 309.0 272.6 308.6Q273.3 308.1 274.2 307.9Q275.0 307.7 276.0 307.6L276.0 307.6Q277.2 307.4 277.9 307.3Q278.6 307.2 278.9 307.0Q279.2 306.8 279.2 306.4L279.2 306.4L279.2 306.3Q279.2 305.5 278.7 305.1Q278.2 304.6 277.2 304.6L277.2 304.6Q276.3 304.6 275.7 305.1Q275.1 305.5 274.9 306.1L274.9 306.1L271.6 305.9Q271.8 304.7 272.6 303.8Q273.3 302.9 274.5 302.5Q275.7 302.0 277.3 302.0L277.3 302.0Q278.4 302.0 279.4 302.2Q280.4 302.5 281.1 303.0Q281.9 303.6 282.4 304.4Q282.8 305.3 282.8 306.4L282.8 306.4L282.8 315.3L279.4 315.3L279.4 313.4L279.3 313.4Q279.0 314.0 278.4 314.5Q277.9 315.0 277.2 315.2Q276.4 315.5 275.4 315.5ZM276.5 313.0L276.5 313.0Q277.3 313.0 277.9 312.7Q278.5 312.4 278.9 311.8Q279.2 311.3 279.2 310.6L279.2 310.6L279.2 309.2Q279.0 309.3 278.8 309.4Q278.5 309.5 278.1 309.5Q277.7 309.6 277.4 309.7Q277.0 309.7 276.7 309.8L276.7 309.8Q276.1 309.9 275.6 310.1Q275.1 310.3 274.8 310.6Q274.6 311.0 274.6 311.5L274.6 311.5Q274.6 312.2 275.1 312.6Q275.7 313.0 276.5 313.0ZM289.3 315.3L285.7 315.3L285.7 297.8L289.3 297.8L289.3 304.4L289.5 304.4Q289.7 303.8 290.1 303.3Q290.6 302.7 291.3 302.4Q292.1 302.0 293.2 302.0L293.2 302.0Q294.6 302.0 295.8 302.7Q297.0 303.5 297.8 305.0Q298.5 306.5 298.5 308.7L298.5 308.7Q298.5 310.9 297.8 312.4Q297.1 313.9 295.9 314.7Q294.7 315.5 293.2 315.5L293.2 315.5Q292.1 315.5 291.4 315.1Q290.6 314.8 290.2 314.2Q289.7 313.7 289.5 313.2L289.5 313.2L289.3 313.2L289.3 315.3ZM289.3 308.7L289.3 308.7Q289.3 309.9 289.6 310.7Q289.9 311.6 290.5 312.1Q291.1 312.6 292.0 312.6L292.0 312.6Q292.9 312.6 293.5 312.1Q294.1 311.6 294.5 310.7Q294.8 309.8 294.8 308.7L294.8 308.7Q294.8 307.6 294.5 306.7Q294.1 305.8 293.5 305.4Q292.9 304.9 292.0 304.9L292.0 304.9Q291.1 304.9 290.5 305.3Q289.9 305.8 289.6 306.7Q289.3 307.5 289.3 308.7ZM300.9 297.8L304.5 297.8L304.5 315.3L300.9 315.3L300.9 297.8ZM313.4 315.5L313.4 315.5Q311.4 315.5 309.9 314.7Q308.5 313.9 307.7 312.3Q306.9 310.8 306.9 308.8L306.9 308.8Q306.9 306.7 307.7 305.2Q308.5 303.7 309.9 302.8Q311.3 302.0 313.2 302.0L313.2 302.0Q314.5 302.0 315.7 302.4Q316.8 302.8 317.6 303.6Q318.5 304.5 318.9 305.7Q319.4 307.0 319.4 308.6L319.4 308.6L319.4 309.6L308.3 309.6L308.3 307.4L316.0 307.4Q316.0 306.6 315.6 306.0Q315.3 305.4 314.7 305.0Q314.1 304.7 313.3 304.7L313.3 304.7Q312.5 304.7 311.8 305.1Q311.2 305.5 310.8 306.1Q310.5 306.7 310.5 307.5L310.5 307.5L310.5 309.6Q310.5 310.6 310.8 311.3Q311.2 312.0 311.9 312.4Q312.5 312.8 313.4 312.8L313.4 312.8Q314.0 312.8 314.6 312.6Q315.1 312.5 315.4 312.1Q315.8 311.8 316.0 311.3L316.0 311.3L319.3 311.5Q319.1 312.7 318.3 313.6Q317.5 314.5 316.2 315.0Q315.0 315.5 313.4 315.5Z "></path><mask id="satori_om-id-2-1"><rect x="325" y="297" width="9" height="20" fill="#fff"></rect></mask><path fill="white" d="M329.5 310.4L329.5 310.4Q328.8 310.4 328.2 310.0Q327.7 309.7 327.3 309.1Q327 308.6 327 307.9L327 307.9Q327 307.2 327.3 306.6Q327.7 306.0 328.2 305.7Q328.8 305.4 329.5 305.4L329.5 305.4Q330.2 305.4 330.8 305.7Q331.3 306.0 331.7 306.6Q332 307.2 332 307.9L332 307.9Q332 308.6 331.7 309.1Q331.3 309.7 330.8 310.0Q330.2 310.4 329.5 310.4Z "></path><mask id="satori_om-id-2-2"><rect x="338" y="292" width="99" height="29" fill="#fff"></rect></mask><path fill="#C9F66F" d="M351.3 315.3L339.5 315.3L339.5 297.8L351.3 297.8L351.3 300.8L343.2 300.8L343.2 305.0L350.7 305.0L350.7 308.0L343.2 308.0L343.2 312.2L351.3 312.2L351.3 315.3ZM353.1 302.2L361.2 302.2L361.2 304.9L353.1 304.9L353.1 302.2ZM358.6 315.3L355.0 315.3L355.0 301.2Q355.0 299.8 355.5 298.9Q356.1 297.9 357.0 297.4Q358.0 297.0 359.3 297.0L359.3 297.0Q360.1 297.0 360.8 297.1Q361.5 297.2 361.8 297.3L361.8 297.3L361.2 300.1Q361.0 300.0 360.6 299.9Q360.3 299.9 360.0 299.9L360.0 299.9Q359.2 299.9 358.9 300.2Q358.6 300.6 358.6 301.3L358.6 301.3L358.6 315.3ZM362.4 302.2L370.4 302.2L370.4 304.9L362.4 304.9L362.4 302.2ZM367.8 315.3L364.2 315.3L364.2 301.2Q364.2 299.8 364.8 298.9Q365.3 297.9 366.3 297.4Q367.3 297.0 368.5 297.0L368.5 297.0Q369.3 297.0 370.0 297.1Q370.7 297.2 371.1 297.3L371.1 297.3L370.4 300.1Q370.2 300.0 369.9 299.9Q369.6 299.9 369.3 299.9L369.3 299.9Q368.5 299.9 368.2 300.2Q367.8 300.6 367.8 301.3L367.8 301.3L367.8 315.3ZM376.3 315.3L372.7 315.3L372.7 302.2L376.3 302.2L376.3 315.3ZM374.5 300.5L374.5 300.5Q373.7 300.5 373.1 299.9Q372.5 299.4 372.5 298.6L372.5 298.6Q372.5 297.9 373.1 297.3Q373.7 296.8 374.5 296.8L374.5 296.8Q375.3 296.8 375.9 297.3Q376.4 297.9 376.4 298.6L376.4 298.6Q376.4 299.4 375.9 299.9Q375.3 300.5 374.5 300.5ZM385.1 315.5L385.1 315.5Q383.1 315.5 381.6 314.6Q380.2 313.8 379.4 312.3Q378.7 310.7 378.7 308.8L378.7 308.8Q378.7 306.7 379.4 305.2Q380.2 303.7 381.7 302.8Q383.1 302.0 385.1 302.0L385.1 302.0Q386.8 302.0 388.1 302.6Q389.4 303.2 390.1 304.4Q390.9 305.5 391.0 307L391.0 307L387.5 307Q387.4 306.0 386.8 305.4Q386.1 304.8 385.1 304.8L385.1 304.8Q384.3 304.8 383.7 305.3Q383.1 305.7 382.7 306.6Q382.4 307.5 382.4 308.7L382.4 308.7Q382.4 310.0 382.7 310.8Q383.0 311.7 383.7 312.2Q384.3 312.6 385.1 312.6L385.1 312.6Q385.8 312.6 386.3 312.4Q386.8 312.1 387.1 311.6Q387.4 311.1 387.5 310.5L387.5 310.5L391.0 310.5Q390.9 312.0 390.1 313.1Q389.4 314.2 388.1 314.9Q386.9 315.5 385.1 315.5ZM396.9 315.3L393.3 315.3L393.3 302.2L396.9 302.2L396.9 315.3ZM395.1 300.5L395.1 300.5Q394.3 300.5 393.7 299.9Q393.2 299.4 393.2 298.6L393.2 298.6Q393.2 297.9 393.7 297.3Q394.3 296.8 395.1 296.8L395.1 296.8Q395.9 296.8 396.5 297.3Q397.1 297.9 397.1 298.6L397.1 298.6Q397.1 299.4 396.5 299.9Q395.9 300.5 395.1 300.5ZM405.8 315.5L405.8 315.5Q403.8 315.5 402.3 314.7Q400.9 313.9 400.1 312.3Q399.3 310.8 399.3 308.8L399.3 308.8Q399.3 306.7 400.1 305.2Q400.9 303.7 402.3 302.8Q403.7 302.0 405.6 302.0L405.6 302.0Q406.9 302.0 408.1 302.4Q409.2 302.8 410.0 303.6Q410.9 304.5 411.3 305.7Q411.8 307.0 411.8 308.6L411.8 308.6L411.8 309.6L400.7 309.6L400.7 307.4L408.4 307.4Q408.4 306.6 408.0 306.0Q407.7 305.4 407.1 305.0Q406.5 304.7 405.7 304.7L405.7 304.7Q404.9 304.7 404.2 305.1Q403.6 305.5 403.2 306.1Q402.9 306.7 402.9 307.5L402.9 307.5L402.9 309.6Q402.9 310.6 403.2 311.3Q403.6 312.0 404.3 312.4Q404.9 312.8 405.8 312.8L405.8 312.8Q406.4 312.8 406.9 312.6Q407.5 312.5 407.8 312.1Q408.2 311.8 408.4 311.3L408.4 311.3L411.7 311.5Q411.5 312.7 410.7 313.6Q409.9 314.5 408.6 315.0Q407.4 315.5 405.8 315.5ZM417.8 307.7L417.8 307.7L417.8 315.3L414.2 315.3L414.2 302.2L417.6 302.2L417.6 304.5L417.8 304.5Q418.2 303.3 419.2 302.7Q420.3 302.0 421.7 302.0L421.7 302.0Q423.1 302.0 424.1 302.6Q425.1 303.2 425.7 304.3Q426.2 305.4 426.2 306.9L426.2 306.9L426.2 315.3L422.6 315.3L422.6 307.6Q422.6 306.4 422.0 305.7Q421.4 305.0 420.3 305.0L420.3 305.0Q419.5 305.0 419.0 305.3Q418.4 305.6 418.1 306.2Q417.8 306.8 417.8 307.7ZM428.2 302.2L436.0 302.2L436.0 304.9L428.2 304.9L428.2 302.2ZM430.0 311.7L430.0 299.0L433.6 299.0L433.6 311.2Q433.6 311.7 433.7 312.0Q433.9 312.3 434.2 312.4Q434.4 312.5 434.8 312.5L434.8 312.5Q435.1 312.5 435.3 312.5Q435.6 312.4 435.7 312.4L435.7 312.4L436.3 315.1Q436.0 315.2 435.5 315.3Q435.0 315.4 434.3 315.4L434.3 315.4Q433.0 315.5 432.0 315.1Q431.0 314.7 430.5 313.8Q429.9 313.0 430.0 311.7L430.0 311.7Z "></path><mask id="satori_om-id-2-3"><rect x="441" y="297" width="9" height="20" fill="#fff"></rect></mask><path fill="white" d="M445.5 310.4L445.5 310.4Q444.8 310.4 444.2 310.0Q443.7 309.7 443.3 309.1Q443 308.6 443 307.9L443 307.9Q443 307.2 443.3 306.6Q443.7 306.0 444.2 305.7Q444.8 305.4 445.5 305.4L445.5 305.4Q446.2 305.4 446.8 305.7Q447.3 306.0 447.7 306.6Q448 307.2 448 307.9L448 307.9Q448 308.6 447.7 309.1Q447.3 309.7 446.8 310.0Q446.2 310.4 445.5 310.4Z "></path><mask id="satori_om-id-2-4"><rect x="454" y="292" width="127" height="29" fill="#fff"></rect></mask><path fill="#C9F66F" d="M462.9 301.8L458.5 315.3L454.6 315.3L460.6 297.8L465.4 297.8L471.4 315.3L467.4 315.3L463.0 301.8L462.9 301.8ZM458.3 311.3L458.3 308.4L467.6 308.4L467.6 311.3L458.3 311.3ZM472.1 302.2L480.2 302.2L480.2 304.9L472.1 304.9L472.1 302.2ZM477.6 315.3L474.0 315.3L474.0 301.2Q474.0 299.8 474.5 298.9Q475.1 297.9 476.0 297.4Q477.0 297.0 478.3 297.0L478.3 297.0Q479.1 297.0 479.8 297.1Q480.5 297.2 480.8 297.3L480.8 297.3L480.2 300.1Q480.0 300.0 479.6 299.9Q479.3 299.9 479.0 299.9L479.0 299.9Q478.2 299.9 477.9 300.2Q477.6 300.6 477.6 301.3L477.6 301.3L477.6 315.3ZM481.4 302.2L489.4 302.2L489.4 304.9L481.4 304.9L481.4 302.2ZM486.8 315.3L483.2 315.3L483.2 301.2Q483.2 299.8 483.8 298.9Q484.3 297.9 485.3 297.4Q486.3 297.0 487.5 297.0L487.5 297.0Q488.3 297.0 489.0 297.1Q489.7 297.2 490.1 297.3L490.1 297.3L489.4 300.1Q489.2 300.0 488.9 299.9Q488.6 299.9 488.3 299.9L488.3 299.9Q487.5 299.9 487.2 300.2Q486.8 300.6 486.8 301.3L486.8 301.3L486.8 315.3ZM497.1 315.5L497.1 315.5Q495.1 315.5 493.7 314.7Q492.2 313.8 491.5 312.3Q490.7 310.8 490.7 308.8L490.7 308.8Q490.7 306.7 491.5 305.2Q492.2 303.7 493.7 302.8Q495.1 302.0 497.1 302.0L497.1 302.0Q499.1 302.0 500.5 302.8Q502.0 303.7 502.8 305.2Q503.6 306.7 503.6 308.8L503.6 308.8Q503.6 310.8 502.8 312.3Q502.0 313.8 500.5 314.7Q499.1 315.5 497.1 315.5ZM497.1 312.7L497.1 312.7Q498.0 312.7 498.6 312.2Q499.2 311.7 499.6 310.8Q499.9 309.9 499.9 308.7L499.9 308.7Q499.9 307.6 499.6 306.7Q499.2 305.8 498.6 305.3Q498.0 304.8 497.1 304.8L497.1 304.8Q496.2 304.8 495.6 305.3Q495.0 305.8 494.7 306.7Q494.4 307.6 494.4 308.7L494.4 308.7Q494.4 309.9 494.7 310.8Q495.0 311.7 495.6 312.2Q496.2 312.7 497.1 312.7ZM509.6 315.3L505.9 315.3L505.9 302.2L509.4 302.2L509.4 304.4L509.6 304.4Q509.9 303.2 510.8 302.6Q511.6 302.0 512.7 302.0L512.7 302.0Q513.0 302.0 513.3 302.0Q513.6 302.0 513.9 302.1L513.9 302.1L513.9 305.3Q513.6 305.2 513.2 305.2Q512.7 305.1 512.3 305.1L512.3 305.1Q511.5 305.1 510.9 305.5Q510.3 305.8 509.9 306.4Q509.6 307.0 509.6 307.8L509.6 307.8L509.6 315.3ZM519.9 315.5L519.9 315.5Q518.5 315.5 517.3 314.7Q516.0 313.9 515.3 312.4Q514.6 310.9 514.6 308.7L514.6 308.7Q514.6 306.5 515.4 305.0Q516.1 303.5 517.3 302.7Q518.5 302.0 519.9 302.0L519.9 302.0Q521.0 302.0 521.8 302.4Q522.5 302.7 523.0 303.3Q523.4 303.8 523.7 304.4L523.7 304.4L523.8 304.4L523.8 297.8L527.4 297.8L527.4 315.3L523.8 315.3L523.8 313.2L523.7 313.2Q523.4 313.7 522.9 314.2Q522.5 314.8 521.7 315.1Q521.0 315.5 519.9 315.5ZM521.1 312.6L521.1 312.6Q522.0 312.6 522.6 312.1Q523.2 311.6 523.5 310.7Q523.9 309.9 523.9 308.7L523.9 308.7Q523.9 307.5 523.5 306.7Q523.2 305.8 522.6 305.3Q522.0 304.9 521.1 304.9L521.1 304.9Q520.2 304.9 519.6 305.4Q519.0 305.8 518.7 306.7Q518.3 307.6 518.3 308.7L518.3 308.7Q518.3 309.8 518.7 310.7Q519.0 311.6 519.6 312.1Q520.2 312.6 521.1 312.6ZM534.1 315.5L534.1 315.5Q532.9 315.5 531.9 315.1Q530.9 314.6 530.3 313.8Q529.8 312.9 529.8 311.6L529.8 311.6Q529.8 310.5 530.2 309.8Q530.6 309.0 531.3 308.6Q531.9 308.1 532.8 307.9Q533.7 307.7 534.7 307.6L534.7 307.6Q535.8 307.4 536.5 307.3Q537.2 307.2 537.5 307.0Q537.8 306.8 537.8 306.4L537.8 306.4L537.8 306.3Q537.8 305.5 537.3 305.1Q536.8 304.6 535.9 304.6L535.9 304.6Q534.9 304.6 534.3 305.1Q533.8 305.5 533.6 306.1L533.6 306.1L530.2 305.9Q530.5 304.7 531.2 303.8Q532.0 302.9 533.2 302.5Q534.4 302.0 535.9 302.0L535.9 302.0Q537.0 302.0 538.0 302.2Q539.0 302.5 539.8 303.0Q540.6 303.6 541.0 304.4Q541.5 305.3 541.5 306.4L541.5 306.4L541.5 315.3L538.0 315.3L538.0 313.4L537.9 313.4Q537.6 314.0 537.1 314.5Q536.6 315.0 535.8 315.2Q535.1 315.5 534.1 315.5ZM535.1 313.0L535.1 313.0Q535.9 313.0 536.6 312.7Q537.2 312.4 537.5 311.8Q537.9 311.3 537.9 310.6L537.9 310.6L537.9 309.2Q537.7 309.3 537.4 309.4Q537.1 309.5 536.7 309.5Q536.4 309.6 536.0 309.7Q535.6 309.7 535.3 309.8L535.3 309.8Q534.7 309.9 534.2 310.1Q533.8 310.3 533.5 310.6Q533.2 311.0 533.2 311.5L533.2 311.5Q533.2 312.2 533.8 312.6Q534.3 313.0 535.1 313.0ZM547.9 315.3L544.4 315.3L544.4 297.8L548.0 297.8L548.0 304.4L548.1 304.4Q548.3 303.8 548.8 303.3Q549.3 302.7 550.0 302.4Q550.7 302.0 551.8 302.0L551.8 302.0Q553.3 302.0 554.5 302.7Q555.7 303.5 556.4 305.0Q557.1 306.5 557.1 308.7L557.1 308.7Q557.1 310.9 556.4 312.4Q555.7 313.9 554.5 314.7Q553.3 315.5 551.8 315.5L551.8 315.5Q550.8 315.5 550.0 315.1Q549.3 314.8 548.8 314.2Q548.4 313.7 548.1 313.2L548.1 313.2L547.9 313.2L547.9 315.3ZM547.9 308.7L547.9 308.7Q547.9 309.9 548.2 310.7Q548.6 311.6 549.2 312.1Q549.8 312.6 550.7 312.6L550.7 312.6Q551.6 312.6 552.2 312.1Q552.8 311.6 553.1 310.7Q553.4 309.8 553.4 308.7L553.4 308.7Q553.4 307.6 553.1 306.7Q552.8 305.8 552.2 305.4Q551.6 304.9 550.7 304.9L550.7 304.9Q549.8 304.9 549.2 305.3Q548.6 305.8 548.2 306.7Q547.9 307.5 547.9 308.7ZM559.5 297.8L563.2 297.8L563.2 315.3L559.5 315.3L559.5 297.8ZM572.0 315.5L572.0 315.5Q570.0 315.5 568.6 314.7Q567.1 313.9 566.3 312.3Q565.5 310.8 565.5 308.8L565.5 308.8Q565.5 306.7 566.3 305.2Q567.1 303.7 568.5 302.8Q570.0 302.0 571.9 302.0L571.9 302.0Q573.2 302.0 574.3 302.4Q575.4 302.8 576.3 303.6Q577.1 304.5 577.6 305.7Q578.0 307.0 578.0 308.6L578.0 308.6L578.0 309.6L567.0 309.6L567.0 307.4L574.6 307.4Q574.6 306.6 574.3 306.0Q573.9 305.4 573.3 305.0Q572.7 304.7 572.0 304.7L572.0 304.7Q571.1 304.7 570.5 305.1Q569.9 305.5 569.5 306.1Q569.1 306.7 569.1 307.5L569.1 307.5L569.1 309.6Q569.1 310.6 569.5 311.3Q569.9 312.0 570.5 312.4Q571.2 312.8 572.1 312.8L572.1 312.8Q572.7 312.8 573.2 312.6Q573.7 312.5 574.1 312.1Q574.4 311.8 574.6 311.3L574.6 311.3L578.0 311.5Q577.7 312.7 576.9 313.6Q576.1 314.5 574.9 315.0Q573.7 315.5 572.0 315.5Z "></path><mask id="satori_om-id-3"><rect x="606" y="334" width="174" height="46" fill="#fff"></rect></mask><path x="606" y="334" width="174" height="46" fill="rgba(255, 255, 255, 0.1)" d="M626,334 h134 a20,20 0 0 1 20,20 v6 a20,20 0 0 1 -20,20 h-134 a20,20 0 0 1 -20,-20 v-6 a20,20 0 0 1 20,-20"></path><mask id="satori_om-id-3-0"><rect x="626" y="346" width="102" height="22" fill="#fff"></rect></mask><path fill="white" d="M638.6 354.6L635.8 354.6Q635.7 354.1 635.4 353.8Q635.2 353.4 634.8 353.1Q634.5 352.9 634.1 352.8Q633.6 352.6 633.1 352.6L633.1 352.6Q632.1 352.6 631.3 353.1Q630.6 353.6 630.1 354.6Q629.7 355.5 629.7 356.9L629.7 356.9Q629.7 358.2 630.1 359.2Q630.5 360.2 631.3 360.7Q632.1 361.2 633.1 361.2L633.1 361.2Q634.0 361.2 634.7 360.8Q635.4 360.5 635.7 359.9Q636.1 359.3 636.1 358.4L636.1 358.4L636.6 358.5L633.3 358.5L633.3 356.4L638.8 356.4L638.8 358.1Q638.8 359.8 638.0 361.0Q637.3 362.3 636.0 362.9Q634.7 363.6 633.1 363.6L633.1 363.6Q631.2 363.6 629.9 362.8Q628.5 362.0 627.7 360.5Q626.9 359.0 626.9 356.9L626.9 356.9Q626.9 355.3 627.4 354.1Q627.8 352.8 628.7 351.9Q629.5 351.1 630.6 350.6Q631.7 350.2 633.0 350.2L633.0 350.2Q634.1 350.2 635.1 350.5Q636.1 350.8 636.8 351.4Q637.6 352.0 638.0 352.8Q638.5 353.6 638.6 354.6L638.6 354.6ZM645.3 363.6L645.3 363.6Q643.7 363.6 642.6 363.0Q641.6 362.4 641.0 361.3Q640.4 360.1 640.4 358.6L640.4 358.6Q640.4 357.1 641.0 355.9Q641.6 354.8 642.6 354.1Q643.7 353.5 645.1 353.5L645.1 353.5Q646.1 353.5 647.0 353.8Q647.8 354.1 648.4 354.7Q649.1 355.4 649.4 356.3Q649.8 357.2 649.8 358.5L649.8 358.5L649.8 359.2L641.5 359.2L641.5 357.5L647.2 357.5Q647.2 356.9 646.9 356.5Q646.7 356.0 646.2 355.8Q645.8 355.5 645.2 355.5L645.2 355.5Q644.6 355.5 644.1 355.8Q643.6 356.1 643.3 356.6Q643.1 357.0 643.1 357.6L643.1 357.6L643.1 359.2Q643.1 360.0 643.3 360.5Q643.6 361.0 644.1 361.3Q644.6 361.6 645.3 361.6L645.3 361.6Q645.8 361.6 646.1 361.5Q646.5 361.3 646.8 361.1Q647.0 360.8 647.2 360.5L647.2 360.5L649.7 360.6Q649.5 361.5 648.9 362.2Q648.3 362.9 647.4 363.3Q646.5 363.6 645.3 363.6ZM650.8 353.6L656.8 353.6L656.8 355.7L650.8 355.7L650.8 353.6ZM652.2 360.8L652.2 351.3L654.9 351.3L654.9 360.4Q654.9 360.8 655.0 361.0Q655.1 361.2 655.3 361.3Q655.6 361.4 655.8 361.4L655.8 361.4Q656.0 361.4 656.2 361.3Q656.4 361.3 656.5 361.3L656.5 361.3L656.9 363.3Q656.7 363.4 656.4 363.5Q656.0 363.6 655.5 363.6L655.5 363.6Q654.5 363.6 653.7 363.3Q653 363.0 652.6 362.4Q652.2 361.7 652.2 360.8L652.2 360.8Z M672.5 354.1L669.9 354.1Q669.8 353.3 669.2 352.9Q668.6 352.5 667.6 352.5L667.6 352.5Q666.9 352.5 666.5 352.7Q666.0 352.9 665.8 353.2Q665.5 353.5 665.5 353.9L665.5 353.9Q665.5 354.3 665.7 354.6Q665.8 354.8 666.1 355.0Q666.4 355.2 666.8 355.3Q667.2 355.5 667.6 355.6L667.6 355.6L668.8 355.9Q669.6 356.0 670.3 356.4Q671.1 356.7 671.6 357.1Q672.1 357.6 672.4 358.2Q672.7 358.9 672.7 359.7L672.7 359.7Q672.7 360.9 672.1 361.8Q671.5 362.7 670.3 363.1Q669.2 363.6 667.6 363.6L667.6 363.6Q666.0 363.6 664.8 363.1Q663.7 362.7 663.0 361.7Q662.4 360.7 662.3 359.3L662.3 359.3L665.0 359.3Q665.1 360.0 665.4 360.4Q665.7 360.9 666.3 361.1Q666.9 361.3 667.6 361.3L667.6 361.3Q668.3 361.3 668.8 361.1Q669.3 360.9 669.6 360.5Q669.9 360.2 669.9 359.7L669.9 359.7Q669.9 359.3 669.6 359.0Q669.4 358.6 668.9 358.4Q668.4 358.2 667.7 358.1L667.7 358.1L666.2 357.7Q664.6 357.3 663.6 356.4Q662.7 355.6 662.7 354.1L662.7 354.1Q662.7 352.9 663.3 352.1Q664.0 351.2 665.1 350.7Q666.2 350.2 667.6 350.2L667.6 350.2Q669.1 350.2 670.2 350.7Q671.3 351.2 671.9 352.1Q672.5 352.9 672.5 354.1L672.5 354.1ZM673.8 353.6L679.7 353.6L679.7 355.7L673.8 355.7L673.8 353.6ZM675.1 360.8L675.1 351.3L677.9 351.3L677.9 360.4Q677.9 360.8 678.0 361.0Q678.1 361.2 678.3 361.3Q678.5 361.4 678.8 361.4L678.8 361.4Q679.0 361.4 679.2 361.3Q679.4 361.3 679.5 361.3L679.5 361.3L679.9 363.3Q679.7 363.4 679.3 363.5Q678.9 363.6 678.4 363.6L678.4 363.6Q677.4 363.6 676.7 363.3Q676.0 363.0 675.5 362.4Q675.1 361.7 675.1 360.8L675.1 360.8ZM684.3 363.6L684.3 363.6Q683.3 363.6 682.6 363.3Q681.9 363.0 681.4 362.3Q681.0 361.7 681.0 360.7L681.0 360.7Q681.0 359.9 681.3 359.3Q681.6 358.8 682.1 358.4Q682.7 358.1 683.3 357.9Q684.0 357.7 684.7 357.7L684.7 357.7Q685.6 357.6 686.1 357.5Q686.6 357.4 686.9 357.3Q687.1 357.1 687.1 356.8L687.1 356.8L687.1 356.8Q687.1 356.1 686.7 355.8Q686.3 355.5 685.6 355.5L685.6 355.5Q684.9 355.5 684.5 355.8Q684.0 356.1 683.9 356.6L683.9 356.6L681.4 356.4Q681.6 355.5 682.1 354.9Q682.7 354.2 683.6 353.8Q684.5 353.5 685.6 353.5L685.6 353.5Q686.5 353.5 687.2 353.7Q688.0 353.9 688.5 354.3Q689.1 354.7 689.5 355.3Q689.8 355.9 689.8 356.8L689.8 356.8L689.8 363.4L687.2 363.4L687.2 362.1L687.2 362.1Q686.9 362.5 686.5 362.9Q686.1 363.2 685.6 363.4Q685.0 363.6 684.3 363.6ZM685.1 361.7L685.1 361.7Q685.7 361.7 686.1 361.5Q686.6 361.3 686.8 360.9Q687.1 360.4 687.1 359.9L687.1 359.9L687.1 358.9Q687.0 359.0 686.8 359.0Q686.5 359.1 686.3 359.2Q686.0 359.2 685.7 359.3Q685.4 359.3 685.2 359.3L685.2 359.3Q684.7 359.4 684.4 359.6Q684.0 359.7 683.8 360.0Q683.6 360.2 683.6 360.6L683.6 360.6Q683.6 361.2 684.0 361.5Q684.4 361.7 685.1 361.7ZM694.7 363.4L691.9 363.4L691.9 353.6L694.6 353.6L694.6 355.3L694.7 355.3Q694.9 354.4 695.6 353.9Q696.2 353.5 697.0 353.5L697.0 353.5Q697.2 353.5 697.5 353.5Q697.7 353.5 697.9 353.6L697.9 353.6L697.9 356.0Q697.7 355.9 697.4 355.9Q697.0 355.8 696.7 355.8L696.7 355.8Q696.1 355.8 695.7 356.1Q695.2 356.4 694.9 356.8Q694.7 357.3 694.7 357.9L694.7 357.9L694.7 363.4ZM699.1 353.6L705.0 353.6L705.0 355.7L699.1 355.7L699.1 353.6ZM700.4 360.8L700.4 351.3L703.2 351.3L703.2 360.4Q703.2 360.8 703.3 361.0Q703.4 361.2 703.6 361.3Q703.8 361.4 704.1 361.4L704.1 361.4Q704.3 361.4 704.5 361.3Q704.6 361.3 704.8 361.3L704.8 361.3L705.2 363.3Q705.0 363.4 704.6 363.5Q704.2 363.6 703.7 363.6L703.7 363.6Q702.7 363.6 702.0 363.3Q701.2 363.0 700.8 362.4Q700.4 361.7 700.4 360.8L700.4 360.8ZM711.1 363.6L711.1 363.6Q709.6 363.6 708.5 363.0Q707.4 362.4 706.9 361.3Q706.3 360.1 706.3 358.6L706.3 358.6Q706.3 357.1 706.9 355.9Q707.4 354.8 708.5 354.1Q709.6 353.5 711.0 353.5L711.0 353.5Q712.0 353.5 712.8 353.8Q713.7 354.1 714.3 354.7Q714.9 355.4 715.3 356.3Q715.6 357.2 715.6 358.5L715.6 358.5L715.6 359.2L707.4 359.2L707.4 357.5L713.1 357.5Q713.1 356.9 712.8 356.5Q712.6 356.0 712.1 355.8Q711.7 355.5 711.1 355.5L711.1 355.5Q710.5 355.5 710.0 355.8Q709.5 356.1 709.2 356.6Q709.0 357.0 709.0 357.6L709.0 357.6L709.0 359.2Q709.0 360.0 709.2 360.5Q709.5 361.0 710.0 361.3Q710.5 361.6 711.2 361.6L711.2 361.6Q711.6 361.6 712.0 361.5Q712.4 361.3 712.7 361.1Q712.9 360.8 713.1 360.5L713.1 360.5L715.6 360.6Q715.4 361.5 714.8 362.2Q714.2 362.9 713.3 363.3Q712.4 363.6 711.1 363.6ZM721.0 363.6L721.0 363.6Q719.9 363.6 719.0 363.0Q718.1 362.4 717.6 361.3Q717.1 360.2 717.1 358.5L717.1 358.5Q717.1 356.9 717.6 355.7Q718.1 354.6 719.1 354.1Q720.0 353.5 721.0 353.5L721.0 353.5Q721.9 353.5 722.4 353.8Q723.0 354.0 723.3 354.5Q723.7 354.9 723.8 355.3L723.8 355.3L723.9 355.3L723.9 350.3L726.6 350.3L726.6 363.4L723.9 363.4L723.9 361.9L723.8 361.9Q723.6 362.3 723.3 362.7Q722.9 363.1 722.4 363.3Q721.8 363.6 721.0 363.6ZM721.9 361.4L721.9 361.4Q722.6 361.4 723.0 361.1Q723.5 360.7 723.7 360.1Q724.0 359.4 724.0 358.5L724.0 358.5Q724.0 357.7 723.7 357.0Q723.5 356.4 723.0 356.0Q722.6 355.7 721.9 355.7L721.9 355.7Q721.2 355.7 720.8 356.0Q720.3 356.4 720.1 357.0Q719.8 357.7 719.8 358.5L719.8 358.5Q719.8 359.4 720.1 360.0Q720.3 360.7 720.8 361.1Q721.2 361.4 721.9 361.4Z "></path><clipPath id="satori_cp-id-3-1"><rect x="734" y="344" width="26" height="26"></rect></clipPath><mask id="satori_om-id-3-1"><rect x="734" y="344" width="26" height="26" fill="#fff"></rect></mask><image x="734" y="344" width="26" height="26" href="data:image/svg+xml;utf8,%3Csvg  fill=%22white%22 color=%22white%22 xmlns=%22http://www.w3.org/2000/svg%22 width=%2226%22 height=%2226%22 viewBox=%220 0 15 15%22%3E%3Cpath d=%22M8.14645 3.14645C8.34171 2.95118 8.65829 2.95118 8.85355 3.14645L12.8536 7.14645C13.0488 7.34171 13.0488 7.65829 12.8536 7.85355L8.85355 11.8536C8.65829 12.0488 8.34171 12.0488 8.14645 11.8536C7.95118 11.6583 7.95118 11.3417 8.14645 11.1464L11.2929 8H2.5C2.22386 8 2 7.77614 2 7.5C2 7.22386 2.22386 7 2.5 7H11.2929L8.14645 3.85355C7.95118 3.65829 7.95118 3.34171 8.14645 3.14645Z%22 fill=%22white%22 fill-rule=%22evenodd%22 clip-rule=%22evenodd%22%3E%3C/path%3E%3C/svg%3E" preserveAspectRatio="none" clip-path="url(#satori_cp-id-3-1)" mask="url(#satori_om-id-3-1)"></image><mask id="satori_om-id-3-1-0"><rect x="734" y="344" width="0" height="26" fill="#fff"></rect></mask></svg>